<svg width="654" height="654" viewBox="0 0 579 346" fill="none" xmlns="http://www.w3.org/2000/svg">
<g transform="translate(-20,-160)">
<path opacity="0.2" fill-rule="evenodd" clip-rule="evenodd" d="M558.469 189.717C557.073 187.392 555.643 185.091 554.181 182.816L412.371 72.972C409.793 72.1185 407.201 71.3035 404.594 70.5274L558.469 189.717ZM569.545 210.133C568.585 208.163 567.603 206.209 566.598 204.27L388.425 66.2588C386.289 65.7658 384.145 65.2986 381.994 64.8575L569.545 210.133ZM577.515 228.142C576.812 226.379 576.091 224.628 575.353 222.887L368.162 62.3988C366.287 62.1162 364.407 61.8533 362.522 61.6103L577.515 228.142ZM583.467 244.587C582.939 242.966 582.397 241.353 581.841 239.748L350.187 60.311C348.491 60.1722 346.792 60.0495 345.09 59.943L583.467 244.587ZM587.958 259.901C587.561 258.385 587.152 256.875 586.731 255.371L333.83 59.4773C332.269 59.4457 330.705 59.4279 329.14 59.4238L587.958 259.901ZM591.319 274.341C591.027 272.912 590.723 271.483 590.407 270.055L318.709 59.6004C317.254 59.6534 315.798 59.7185 314.34 59.7955L591.319 274.341ZM593.761 288.068C593.555 286.707 593.338 285.346 593.111 283.984L304.579 60.4904C303.211 60.6129 301.842 60.746 300.473 60.8899L593.761 288.068ZM595.422 301.19C595.289 299.887 595.147 298.584 594.995 297.28L291.27 62.017C289.976 62.1981 288.682 62.3888 287.387 62.5892L595.422 301.19ZM596.404 313.786C596.336 312.534 596.259 311.281 596.173 310.028L278.661 64.086C277.431 64.3176 276.201 64.558 274.971 64.8074L596.404 313.786ZM596.787 325.918C596.776 324.711 596.757 323.503 596.73 322.294L266.661 66.6263C265.484 66.9032 264.31 67.1874 263.14 67.479L596.787 325.918ZM596.633 337.634C596.674 336.468 596.707 335.301 596.733 334.132L255.201 69.5852C254.075 69.9022 252.952 70.2261 251.834 70.5567L596.633 337.634ZM595.992 348.974C596.08 347.844 596.161 346.714 596.234 345.582L244.233 72.925C243.154 73.2788 242.078 73.639 241.006 74.0055L595.992 348.974ZM594.906 359.968C595.037 358.872 595.161 357.775 595.279 356.677L233.717 76.6151C232.681 77.0029 231.649 77.3966 230.62 77.7963L594.906 359.968ZM593.407 370.643C593.579 369.579 593.744 368.513 593.902 367.446L223.62 80.63C222.625 81.0494 221.633 81.4744 220.645 81.905L593.407 370.643ZM591.525 381.02C591.734 379.986 591.937 378.95 592.134 377.912L213.915 84.9482C212.958 85.3973 212.004 85.8516 211.053 86.3112L591.525 381.02ZM589.283 391.119C589.527 390.112 589.765 389.103 589.998 388.093L204.578 89.5515C203.657 90.0285 202.738 90.5105 201.824 90.9976L589.283 391.119ZM586.699 400.953C586.977 399.973 587.249 398.99 587.516 398.006L195.59 94.4243C194.702 94.9278 193.817 95.4362 192.937 95.9492L586.699 400.953ZM583.792 410.537C584.101 409.581 584.406 408.624 584.705 407.664L186.932 99.5535C186.076 100.082 185.224 100.616 184.376 101.154L583.792 410.537ZM580.575 419.881C580.915 418.949 581.25 418.015 581.58 417.079L178.59 104.928C177.765 105.481 176.945 106.038 176.127 106.6L580.575 419.881ZM577.059 428.993C577.429 428.085 577.794 427.174 578.154 426.261L170.552 110.537C169.758 111.114 168.967 111.694 168.179 112.279L577.059 428.993ZM573.256 437.883C573.654 436.997 574.048 436.108 574.436 435.217L162.808 116.374C162.042 116.973 161.28 117.576 160.522 118.183L573.256 437.883ZM569.173 446.556C569.599 445.691 570.021 444.825 570.437 443.955L155.347 122.431C154.61 123.052 153.876 123.677 153.146 124.306L569.173 446.556ZM564.818 455.018C565.271 454.174 565.719 453.329 566.164 452.48L148.164 128.703C147.454 129.345 146.748 129.991 146.045 130.641L564.818 455.018ZM560.195 463.272C560.675 462.45 561.15 461.625 561.621 460.797L141.251 135.184C140.568 135.847 139.889 136.514 139.213 137.184L560.195 463.272ZM555.309 471.323C555.815 470.521 556.317 469.717 556.814 468.91L134.604 141.87C133.948 142.555 133.295 143.242 132.645 143.933L555.309 471.323ZM550.163 479.173C550.695 478.392 551.223 477.607 551.747 476.82L128.219 148.76C127.588 149.465 126.962 150.172 126.339 150.883L550.163 479.173ZM544.76 486.823C545.318 486.062 545.871 485.298 546.421 484.53L122.093 155.85C121.488 156.575 120.887 157.303 120.29 158.034L544.76 486.823ZM539.1 494.275C539.683 493.533 540.263 492.789 540.839 492.042L116.224 163.14C115.645 163.885 115.07 164.633 114.499 165.384L539.1 494.275ZM533.183 501.527C533.793 500.806 534.398 500.082 535 499.355L110.611 170.628C110.058 171.393 109.509 172.161 108.964 172.932L533.183 501.527ZM527.009 508.58C527.644 507.88 528.276 507.175 528.904 506.468L105.255 178.315C104.728 179.1 104.205 179.888 103.686 180.679L527.009 508.58ZM520.575 515.433C521.237 514.752 521.895 514.068 522.549 513.381L100.158 186.202C99.6564 187.008 99.1595 187.816 98.6669 188.627L520.575 515.433ZM513.879 522.081C514.567 521.422 515.252 520.759 515.932 520.092L95.3202 194.29C94.8454 195.117 94.3749 195.946 93.9088 196.777L513.879 522.081ZM506.917 528.524C507.632 527.885 508.343 527.243 509.051 526.597L90.7465 202.583C90.2984 203.43 89.8548 204.28 89.4157 205.132L506.917 528.524ZM499.682 534.756C500.425 534.139 501.164 533.518 501.9 532.893L86.441 211.084C86.0201 211.952 85.6039 212.823 85.1924 213.696L499.682 534.756ZM492.17 540.773C492.941 540.178 493.708 539.579 494.472 538.976L82.4094 219.797C82.0165 220.687 81.6284 221.58 81.245 222.474L492.17 540.773ZM484.372 546.568C485.172 545.996 485.968 545.419 486.761 544.839L78.659 228.727C78.2948 229.64 77.9355 230.555 77.5812 231.472L484.372 546.568ZM476.279 552.134C477.109 551.586 477.935 551.033 478.758 550.475L75.1982 237.882C74.8637 238.818 74.5343 239.756 74.21 240.696L476.279 552.134ZM467.879 557.464C468.741 556.94 469.598 556.411 470.453 555.878L72.0375 247.269C71.7338 248.23 71.4354 249.192 71.1424 250.156L467.879 557.464ZM459.161 562.546C460.055 562.048 460.946 561.544 461.833 561.036L69.1891 256.899C68.9176 257.884 68.6516 258.871 68.3912 259.86L459.161 562.546ZM450.109 567.37C451.037 566.898 451.962 566.421 452.883 565.939L66.6676 266.781C66.4299 267.793 66.198 268.807 65.9719 269.822L450.109 567.37ZM440.705 571.922C441.67 571.478 442.631 571.029 443.588 570.575L64.4903 276.93C64.2882 277.97 64.0923 279.011 63.9024 280.055L440.705 571.922ZM430.93 576.185C431.932 575.772 432.931 575.352 433.927 574.927L62.6774 287.361C62.5133 288.431 62.3556 289.502 62.2044 290.575L430.93 576.185ZM420.758 580.142C421.801 579.76 422.841 579.372 423.878 578.979L61.2533 298.094C61.1298 299.195 61.0132 300.298 60.9034 301.403L420.758 580.142ZM410.16 583.769C411.248 583.422 412.332 583.068 413.412 582.708L60.247 309.15C60.1674 310.286 60.095 311.423 60.0299 312.562L410.16 583.769ZM399.104 587.041C400.24 586.731 401.371 586.414 402.499 586.09L59.6933 320.557C59.6615 321.73 59.6374 322.905 59.6212 324.081L399.104 587.041ZM387.548 589.925C388.736 589.656 389.919 589.379 391.099 589.096L59.6347 332.347C59.6555 333.562 59.6846 334.777 59.722 335.994L387.548 589.925ZM375.441 592.382C376.682 592.16 377.924 591.928 379.165 591.687L60.1234 344.561C60.2027 345.822 60.2911 347.084 60.3885 348.346L375.441 592.382ZM362.71 594.357C364.017 594.186 365.324 594.005 366.632 593.815L61.2246 357.25C61.37 358.562 61.5252 359.876 61.6903 361.19L362.71 594.357ZM349.259 595.773C350.642 595.663 352.026 595.541 353.41 595.409L63.0215 370.477C63.2426 371.85 63.4746 373.223 63.7175 374.596L349.259 595.773ZM334.959 596.532C336.432 596.494 337.907 596.443 339.383 596.379L65.6222 384.327C65.8194 385.246 66.0215 386.164 66.2286 387.083C66.3469 387.608 66.4667 388.132 66.5879 388.655L334.959 596.532ZM319.631 596.495C321.214 596.544 322.801 596.579 324.389 596.601L69.1745 398.914C69.593 400.448 70.0242 401.975 70.4679 403.496L319.631 596.495ZM303.009 595.455C304.734 595.617 306.462 595.763 308.194 595.891L73.9065 414.415C74.4627 416.059 75.034 417.695 75.6199 419.322L303.009 595.455ZM284.673 593.088C286.588 593.403 288.509 593.697 290.435 593.971L80.1807 431.111C80.924 432.905 81.6856 434.688 82.4651 436.46L284.673 593.088ZM263.867 588.808C266.066 589.352 268.274 589.869 270.49 590.358L88.6194 449.483C89.6417 451.503 90.688 453.507 91.7578 455.493L263.867 588.808ZM238.944 581.338C241.644 582.292 244.362 583.204 247.096 584.073L100.486 470.51C102.004 472.936 103.558 475.333 105.148 477.701L238.944 581.338ZM204.083 566.171C208.21 568.324 212.394 570.371 216.631 572.31L119.403 496.998C122.332 500.612 125.35 504.143 128.453 507.589L204.083 566.171ZM433.17 80.8267L541.437 164.689C538.964 161.465 536.422 158.303 533.814 155.204L444.29 85.8601C440.624 84.0997 436.916 82.4213 433.17 80.8267Z" fill="#159593"/>

</g>
<g>
<ellipse cx="65.1152" cy="69.8424" rx="39.0952" ry="39.3248" fill="#61E19D"/>
<path d="M54.4941 64.6711C62.1917 67.6362 74.0568 64.7214 77.2754 61.3775" stroke="#004F68" stroke-width="1.97151" stroke-linecap="round"/>
<path d="M49.4038 59.7435C48.9719 52.4618 58.7004 50.4228 60.9715 58.1461" stroke="#004F68" stroke-width="1.97151" stroke-linecap="round"/>
<path d="M69.261 57.1125C68.856 50.03 78.2559 48.0181 80.4365 55.5248" stroke="#004F68" stroke-width="1.97151" stroke-linecap="round"/>
<ellipse cx="39.8952" cy="142.532" rx="39.0952" ry="39.3248" fill="#61E19D"/>
<path d="M44.5581 135.647C47.1851 146.482 37.1959 148.809 34.5972 138.091" stroke="#004F68" stroke-width="1.97151" stroke-linecap="round"/>
<path d="M23.1437 136.356C22.0875 129.065 31.7049 126.173 34.6497 133.75" stroke="#004F68" stroke-width="1.97151" stroke-linecap="round"/>
<path d="M42.9045 131.993C41.8924 124.9 51.1813 122.063 54.0166 129.43" stroke="#004F68" stroke-width="1.97151" stroke-linecap="round"/>
<ellipse cx="453.836" cy="118.395" rx="39.0952" ry="39.3248" fill="#61E19D"/>
<path d="M472.268 102.99C465.166 112.668 438.476 112.668 429.885 102.99" stroke="#004F68" stroke-width="1.97151" stroke-linecap="round"/>
<path d="M435.623 102.204C436.288 95.1562 445.92 94.6586 446.954 102.406" stroke="#004F68" stroke-width="1.6131" stroke-linecap="round"/>
<path d="M455.056 102.656C455.717 95.8034 465.03 95.2825 466.009 102.808" stroke="#004F68" stroke-width="1.97151" stroke-linecap="round"/>
<ellipse cx="32.6744" cy="32.8328" rx="32.6744" ry="32.8328" transform="matrix(0.999492 0.00111669 0.00109948 1.00051 128.773 20.8892)" fill="#159593"/>
<path d="M150.819 44.5733C158.521 47.5427 170.385 44.6454 173.6 41.3099" stroke="#004F68" stroke-width="1.97151" stroke-linecap="round"/>
<path d="M145.729 39.6521C145.289 32.3756 155.019 30.3491 157.299 38.0688" stroke="#004F68" stroke-width="1.97151" stroke-linecap="round"/>
<path d="M165.586 37.0216C165.173 29.9442 174.575 27.9443 176.764 35.4476" stroke="#004F68" stroke-width="1.97151" stroke-linecap="round"/>
<ellipse cx="32.6744" cy="32.8328" rx="32.6744" ry="32.8328" transform="matrix(0.999492 0.00111666 0.00109943 1.00051 104.027 93.3008)" fill="#159593"/>
<path d="M129.328 107.731C129.247 107.068 129.309 106.691 129.526 106.441C129.706 106.252 129.98 106.154 130.145 106.238C130.332 106.326 130.511 106.551 130.56 106.746C130.608 106.941 130.706 107.424 130.798 107.836C130.894 108.226 131.194 108.732 131.444 108.95C131.771 109.232 132.186 109.327 132.74 109.315C133.18 109.301 134.021 109.032 134.6 108.704C135.178 108.376 135.798 108.173 135.963 108.256C136.128 108.34 136.254 108.599 136.244 108.85C136.233 109.101 135.982 109.503 135.673 109.755C135.386 110.012 134.552 110.35 133.818 110.551C133.089 110.73 132.178 110.798 131.807 110.713C131.414 110.623 130.853 110.357 130.565 110.107C130.254 109.852 129.886 109.446 129.738 109.182C129.574 108.891 129.395 108.252 129.328 107.731Z" fill="#233A45"/>
<path d="M139.885 110.947C139.888 110.626 140.015 110.263 140.181 110.14C140.346 110.017 140.628 109.989 140.82 110.056C141.006 110.145 141.246 110.613 141.361 111.123C141.501 111.73 141.789 112.187 142.303 112.558C142.873 112.987 143.218 113.089 143.847 113.048C144.291 113.012 145.12 112.695 145.66 112.335C146.356 111.896 146.755 111.757 146.949 111.916C147.121 112.07 147.268 112.334 147.295 112.524C147.321 112.714 147.038 113.156 146.671 113.463C146.298 113.792 145.52 114.19 144.915 114.328C144.305 114.488 143.426 114.517 142.923 114.402C142.399 114.282 141.686 113.981 141.348 113.743C140.989 113.5 140.507 112.884 140.295 112.398C140.082 111.912 139.882 111.268 139.885 110.947Z" fill="#233A45"/>
<path d="M145.462 118.21C145.865 117.793 146.341 117.272 146.532 117.041C146.733 116.833 146.967 116.692 147.083 116.733C147.205 116.757 147.363 116.942 147.433 117.115C147.514 117.311 147.456 117.588 147.287 117.864C147.135 118.089 146.642 118.66 146.172 119.109C145.641 119.629 144.71 120.232 143.642 120.751C142.284 121.409 141.584 121.61 140.11 121.8C139.107 121.913 137.622 121.97 136.831 121.897C135.913 121.817 134.615 121.549 133.291 121.141C131.779 120.685 130.787 120.282 129.746 119.695C128.97 119.256 127.783 118.45 127.113 117.918C126.466 117.375 125.572 116.523 125.135 116.017C124.697 115.51 124.02 114.623 123.639 114.006C123.269 113.412 122.744 112.298 122.514 111.512C122.208 110.568 122.131 109.984 122.245 109.707C122.364 109.47 122.559 109.334 122.73 109.375C122.94 109.412 123.195 109.91 123.49 110.831C123.736 111.624 124.233 112.764 124.614 113.381C124.973 114.009 125.903 115.133 126.658 115.9C127.414 116.666 128.638 117.69 129.397 118.179C130.469 118.889 131.24 119.233 132.994 119.847C134.748 120.461 135.555 120.651 136.76 120.757C137.607 120.83 139.03 120.79 139.939 120.681C141.158 120.531 141.986 120.282 143.16 119.727C144.161 119.241 144.997 118.697 145.462 118.21Z" fill="#233A45"/>
<ellipse cx="32.6744" cy="32.8328" rx="32.6744" ry="32.8328" transform="matrix(0.999492 0.00111666 0.00109946 1.00051 506.894 67.1079)" fill="#159593"/>
<path d="M528.154 89.7729C534.775 95.3164 547.481 96.4692 551.78 94.2605" stroke="#004F68" stroke-width="1.97151" stroke-linecap="round"/>
<path d="M553.731 87.1617L547.782 86.1077M534.912 83.8277L528.963 82.7737" stroke="#004F68" stroke-width="1.97151" stroke-linecap="round"/>
<ellipse cx="45.4443" cy="45.4478" rx="45.4443" ry="45.4478" transform="matrix(0.945768 0.321518 -0.317701 0.949324 93.2361 40.1907)" fill="#44C499"/>
<path d="M109.487 91.784C117.189 94.7538 129.053 91.8582 132.268 88.5235" stroke="#004F68" stroke-width="1.97151" stroke-linecap="round"/>
<path d="M104.397 86.8635C103.956 79.5875 113.686 77.5621 115.967 85.2815" stroke="#004F68" stroke-width="1.97151" stroke-linecap="round"/>
<path d="M124.254 84.233C123.84 77.156 133.242 75.1573 135.432 82.6602" stroke="#004F68" stroke-width="1.97151" stroke-linecap="round"/>
<ellipse cx="45.4443" cy="45.4477" rx="45.4443" ry="45.4477" transform="matrix(0.945768 0.321518 -0.317701 0.949324 68.49 112.604)" fill="#44C499"/>
<ellipse cx="45.4443" cy="45.4478" rx="45.4443" ry="45.4478" transform="matrix(0.945768 0.321518 -0.317701 0.949324 482.431 88.4658)" fill="#44C499"/>
<path d="M514.661 130.667C511.92 141.398 501.696 138.471 504.408 127.855" stroke="#004F68" stroke-width="1.97151" stroke-linecap="round"/>
<path d="M523.408 127.362L517.571 125.766M504.945 122.312L499.108 120.716" stroke="#004F68" stroke-width="1.97151" stroke-linecap="round"/>
<ellipse cx="180.025" cy="81.1211" rx="48.7431" ry="49.0293" fill="#61E19D"/>
<path d="M168.683 65.2501C176.883 69.971 190.832 68.7694 195.063 65.5514" stroke="#004F68" stroke-width="1.97151" stroke-linecap="round"/>
<path d="M195.83 57.5181H189.201M174.86 57.5181H168.231" stroke="#004F68" stroke-width="1.97151" stroke-linecap="round"/>
<ellipse cx="309.006" cy="188.986" rx="48.743" ry="49.0293" fill="#8EE7B8"/>
<path d="M294.781 173.876C302.484 176.846 314.348 173.952 317.563 170.617" stroke="#004F68" stroke-width="1.55025" stroke-linecap="round"/>
<path d="M289.691 168.956C289.25 161.68 298.98 159.656 301.262 167.375" stroke="#004F68" stroke-width="1.55025" stroke-linecap="round"/>
<path d="M309.549 166.326C309.134 159.249 318.536 157.251 320.727 164.754" stroke="#004F68" stroke-width="1.55025" stroke-linecap="round"/>
<ellipse cx="108.035" cy="208.597" rx="48.743" ry="49.0293" fill="#61E19D"/>
<path d="M93.7246 198.909C101.422 201.874 113.287 198.959 116.506 195.615" stroke="#004F68" stroke-width="1.97151" stroke-linecap="round"/>
<path d="M88.6342 193.981C88.2023 186.699 97.9309 184.66 100.202 192.384" stroke="#004F68" stroke-width="1.97151" stroke-linecap="round"/>
<path d="M108.491 191.35C108.086 184.268 117.486 182.256 119.667 189.762" stroke="#004F68" stroke-width="1.97151" stroke-linecap="round"/>
<ellipse cx="435.089" cy="198.35" rx="39.0952" ry="39.3248" fill="#61E19D"/>
<path d="M439.161 177.233C439.48 176.942 440.306 176.686 440.975 176.629C441.644 176.572 442.432 176.582 442.761 176.638C443.049 176.718 443.645 177.055 444.105 177.389C444.533 177.714 445.147 178.366 445.459 178.866C445.77 179.366 446.097 180.319 446.173 180.926C446.272 181.575 446.208 182.317 446.043 182.547C445.877 182.778 445.4 182.888 444.952 182.764C444.344 182.596 444.149 182.301 444.163 181.615C444.125 181.121 443.86 180.323 443.499 179.879C443.138 179.434 442.512 178.951 442.064 178.827C441.616 178.704 441.02 178.747 440.735 178.91C440.41 179.096 440.038 179.96 439.748 181.157C439.493 182.225 439.206 183.285 439.122 183.469C439.061 183.693 438.624 183.78 438.176 183.657C437.504 183.471 437.373 183.194 437.399 181.958C437.407 181.167 437.65 179.888 437.996 179.121C438.309 178.344 438.818 177.484 439.161 177.233Z" fill="#233A45"/>
<path d="M421.075 180.011C421.636 179.717 422.616 179.401 423.189 179.317C423.794 179.242 424.934 179.35 425.807 179.556C426.639 179.785 427.587 180.219 427.951 180.527C428.283 180.825 428.917 181.656 429.337 182.393C429.765 183.097 430.004 183.991 429.9 184.377C429.786 184.794 429.449 185.15 429.159 185.208C428.754 185.303 428.321 184.873 427.715 183.809C427.249 182.99 426.527 182.101 426.105 181.881C425.692 181.629 424.811 181.455 424.15 181.48C423.49 181.505 422.446 181.804 421.836 182.153C421.249 182.544 420.426 183.421 419.985 184.162C419.575 184.912 419.32 185.601 419.357 185.715C419.427 185.838 419.276 186.141 419.038 186.386C418.759 186.654 418.273 186.796 417.921 186.699C417.473 186.576 417.296 186.216 417.333 185.571C417.336 185.054 417.588 184.123 417.899 183.484C418.169 182.868 418.799 181.937 419.244 181.439C419.68 180.972 420.514 180.305 421.075 180.011Z" fill="#233A45"/>
<path d="M436.603 187.433C436.716 187.015 437.009 186.441 437.297 186.14C437.608 185.881 438.102 185.707 438.454 185.804C438.902 185.927 439.08 186.287 439.051 186.9C439.04 187.449 438.692 188.354 438.326 188.943C437.951 189.565 437.131 190.305 436.465 190.604C435.832 190.913 434.782 191.106 434.212 191.053C433.546 190.973 432.469 190.503 431.509 189.859C430.08 188.913 429.932 188.699 430.204 186.807L431.51 187.444C432.235 187.816 433.334 188.326 433.925 188.558C434.69 188.907 435.205 188.911 435.734 188.608C436.141 188.375 436.522 187.859 436.603 187.433Z" fill="#233A45"/>
<ellipse cx="356.35" cy="55.0343" rx="39.0952" ry="39.3248" fill="#61E19D"/>
<path d="M348.363 45.659C355.04 48.2308 365.331 45.7026 368.123 42.8022" stroke="#004F68" stroke-width="1.97151" stroke-linecap="round"/>
<path d="M343.948 41.3848C343.574 35.069 352.012 33.3005 353.982 39.9992" stroke="#004F68" stroke-width="1.97151" stroke-linecap="round"/>
<path d="M361.172 39.103C360.82 32.9599 368.973 31.2148 370.865 37.7258" stroke="#004F68" stroke-width="1.97151" stroke-linecap="round"/>
<ellipse cx="40.7378" cy="40.9352" rx="40.7378" ry="40.9352" transform="matrix(0.999492 0.00111666 0.00109945 1.00051 259.983 19.7415)" fill="#159593"/>
<path d="M306.471 48.4427C304.673 59.433 294.569 57.6231 296.347 46.751" stroke="#004F68" stroke-width="1.97151" stroke-linecap="round"/>
<path d="M286.496 40.6295C288.36 33.5101 298.336 34.6545 298.099 42.7831" stroke="#004F68" stroke-width="1.97151" stroke-linecap="round"/>
<path d="M306.375 44.4124C308.202 37.4926 317.854 38.5582 317.598 46.4504" stroke="#004F68" stroke-width="1.97151" stroke-linecap="round"/>
<ellipse cx="40.7378" cy="40.9352" rx="40.7378" ry="40.9352" transform="matrix(0.999492 0.00111666 0.00109945 1.00051 388.965 127.605)" fill="#159593"/>
<path d="M435.25 159.504C431.526 168.082 423.657 164.503 427.341 156.017" stroke="#004F68" stroke-width="1.97151" stroke-linecap="round"/>
<path d="M420.572 148.972C423.552 143.56 431.451 146.574 429.591 153.147" stroke="#004F68" stroke-width="1.97151" stroke-linecap="round"/>
<path d="M435.997 156.192C438.907 150.936 446.558 153.818 444.731 160.194" stroke="#004F68" stroke-width="1.97151" stroke-linecap="round"/>
<ellipse cx="32.6744" cy="32.8328" rx="32.6744" ry="32.8328" transform="matrix(0.999492 0.00111666 0.00109943 1.00051 499.221 149.119)" fill="#159593"/>
<path d="M521.431 171.298C525.645 176.089 534.784 178.371 538.164 177.249" stroke="#004F68" stroke-width="1.97151" stroke-linecap="round"/>
<path d="M519.701 166.109C521.977 160.985 529.349 163.097 528.174 169.184" stroke="#004F68" stroke-width="1.97151" stroke-linecap="round"/>
<path d="M534.201 171.436C536.425 166.458 543.563 168.469 542.403 174.377" stroke="#004F68" stroke-width="1.97151" stroke-linecap="round"/>
<ellipse cx="40.7378" cy="40.9352" rx="40.7378" ry="40.9352" transform="matrix(0.999492 0.00111666 0.00109943 1.00051 187.993 147.217)" fill="#42A8A7"/>
<ellipse cx="32.6745" cy="32.8328" rx="32.6745" ry="32.8328" transform="matrix(0.999492 0.0011166 0.00109939 1.00051 420.482 5.80273)" fill="#159593"/>
<path d="M471.29 31.5501C464.838 37.9452 444.809 34.7823 439.483 26.5273" stroke="#004F68" stroke-width="1.97151" stroke-linecap="round"/>
<path d="M443.886 26.6099C445.201 21.4033 452.488 22.175 452.366 28.1076" stroke="#004F68" stroke-width="1.97151" stroke-linecap="round"/>
<path d="M458.415 29.2437C459.704 24.183 466.754 24.8993 466.617 30.6595" stroke="#004F68" stroke-width="1.97151" stroke-linecap="round"/>
<ellipse cx="56.659" cy="56.6633" rx="56.659" ry="56.6633" transform="matrix(0.945768 0.321518 -0.317701 0.949324 215.676 43.8059)" fill="#44C499"/>
<ellipse cx="45.4443" cy="45.4477" rx="45.4443" ry="45.4477" transform="matrix(0.945768 0.321518 -0.317701 0.949324 463.684 168.421)" fill="#44C499"/>
<path d="M513.591 212.968C506.503 222.569 479.818 222.537 471.217 212.916" stroke="#004F68" stroke-width="1.97151" stroke-linecap="round"/>
<path d="M476.956 212.123C477.612 205.08 487.245 204.594 488.289 212.338" stroke="#004F68" stroke-width="1.97151" stroke-linecap="round"/>
<path d="M496.389 212.575C497.041 205.727 506.356 205.218 507.344 212.74" stroke="#004F68" stroke-width="1.97151" stroke-linecap="round"/>
<ellipse cx="56.659" cy="56.6633" rx="56.659" ry="56.6633" transform="matrix(0.945768 0.321518 -0.317701 0.949324 344.657 151.671)" fill="#44C499"/>
<path d="M371.935 203.389C379.7 211.92 396.302 215.745 402.385 213.601" stroke="#004F68" stroke-width="1.97151" stroke-linecap="round"/>
<path d="M368.643 194.054C372.611 184.709 386.008 188.283 384.062 199.335" stroke="#004F68" stroke-width="1.97151" stroke-linecap="round"/>
<path d="M395.036 203.233C398.914 194.153 411.885 197.554 409.96 208.279" stroke="#004F68" stroke-width="1.97151" stroke-linecap="round"/>
<ellipse cx="56.659" cy="56.6633" rx="56.659" ry="56.6633" transform="matrix(0.945768 0.321518 -0.317701 0.949324 143.686 171.282)" fill="#44C499"/>
<path d="M183.905 220.145C181.043 231.841 156.394 242.113 144.763 236.457" stroke="#004F68" stroke-width="1.97151" stroke-linecap="round"/>
<path d="M149.774 233.526C147.698 226.766 156.392 222.613 160.301 229.366" stroke="#004F68" stroke-width="1.97151" stroke-linecap="round"/>
<path d="M167.897 226.458C165.892 219.88 174.283 215.827 178.057 222.397" stroke="#004F68" stroke-width="1.97151" stroke-linecap="round"/>
<ellipse cx="45.4443" cy="45.4478" rx="45.4443" ry="45.4478" transform="matrix(0.945768 0.321518 -0.317701 0.949324 384.945 25.1045)" fill="#44C499"/>
<path d="M434.78 69.5696C427.691 79.1708 401.007 79.1384 392.406 69.5181" stroke="#004F68" stroke-width="1.97151" stroke-linecap="round"/>
<path d="M398.144 68.7244C398.8 61.6814 408.434 61.1959 409.477 68.9396" stroke="#004F68" stroke-width="1.97151" stroke-linecap="round"/>
<path d="M417.578 69.1768C418.23 62.3287 427.544 61.8195 428.533 69.3421" stroke="#004F68" stroke-width="1.97151" stroke-linecap="round"/>
<path d="M272.963 90.658C265.861 100.337 239.171 100.337 230.58 90.658" stroke="#004F68" stroke-width="1.97151" stroke-linecap="round"/>
<path d="M236.318 89.8725C236.982 82.8244 246.614 82.3268 247.648 90.0739" stroke="#004F68" stroke-width="1.97151" stroke-linecap="round"/>
<path d="M255.751 90.3246C256.412 83.4716 265.724 82.9507 266.704 90.4766" stroke="#004F68" stroke-width="1.97151" stroke-linecap="round"/>
<path d="M113.238 149.605C107.486 157.444 85.8695 157.444 78.9114 149.605" stroke="#004F68" stroke-width="1.55025" stroke-linecap="round"/>
<path d="M83.5588 148.969C84.0968 143.261 91.8979 142.857 92.7355 149.132" stroke="#004F68" stroke-width="1.55025" stroke-linecap="round"/>
<path d="M99.2981 149.335C99.8331 143.785 107.376 143.363 108.169 149.458" stroke="#004F68" stroke-width="1.55025" stroke-linecap="round"/>
<g filter="url(#filter0_d_399_10295)">
<ellipse cx="331.007" cy="320.209" rx="58.4794" ry="4.59481" fill="#004F68"/>
<mask id="mask0_399_10295" style="mask-type:alpha" maskUnits="userSpaceOnUse" x="286" y="195" width="50" height="125">
<path d="M335.185 319.235L335.185 211.882C335.185 202.942 328.12 195.599 319.185 195.255C310.02 194.903 302.298 202.034 301.921 211.198L297.88 309.331C297.797 311.364 296.124 312.969 294.089 312.969L292.442 312.969C290.189 312.969 288.096 314.132 286.905 316.045C286.04 317.435 287.04 319.235 288.677 319.235L335.185 319.235Z" fill="#61E19D"/>
</mask>
<g mask="url(#mask0_399_10295)">
<path d="M335.185 314.115L335.185 211.882C335.185 202.942 328.12 195.599 319.185 195.255C310.02 194.903 302.298 202.034 301.921 211.198L297.88 309.331C297.797 311.364 296.124 312.969 294.089 312.969L292.442 312.969C290.189 312.969 288.096 314.132 286.905 316.045C286.04 317.435 287.04 319.235 288.677 319.235L330.065 319.235C332.893 319.235 335.185 316.942 335.185 314.115Z" fill="#61E19D"/>
<path d="M295.642 242.376L336.856 222.604L339.084 190.162L295.642 189.466L295.642 242.376Z" fill="#004F68"/>
<path d="M302.982 312.969C300.056 312.7 295.303 312.491 292.996 312.412L292.996 310.184C295.449 310.184 300.312 310.472 303.213 310.667C303.812 310.708 304.275 311.206 304.275 311.806C304.275 312.496 303.669 313.032 302.982 312.969Z" fill="#004F68"/>
</g>
<mask id="mask1_399_10295" style="mask-type:alpha" maskUnits="userSpaceOnUse" x="336" y="194" width="69" height="125">
<path d="M355.562 315.357C351.552 303.285 339.745 263.956 336.447 210.565C335.908 201.843 342.951 194.617 351.689 194.617C360.041 194.617 366.859 201.252 367.509 209.579C371.316 258.367 383.69 285.324 388.369 293.978C389.394 295.875 391.592 296.68 393.661 296.07L398.064 294.772C399.932 294.221 401.951 294.613 403.478 295.824C404.346 296.512 404.443 297.77 403.628 298.52C399.383 302.428 385.711 313.36 360.966 318.467C358.624 318.951 356.316 317.627 355.562 315.357Z" fill="#61E19D"/>
</mask>
<g mask="url(#mask1_399_10295)">
<path d="M355.562 315.219C351.552 303.147 339.745 263.818 336.447 210.426C335.908 201.704 342.951 194.479 351.689 194.479C360.041 194.479 366.859 201.114 367.509 209.44C371.316 258.229 383.69 285.185 388.369 293.839C389.394 295.736 391.592 296.541 393.661 295.931L398.064 294.633C399.932 294.082 401.951 294.475 403.478 295.685C404.346 296.373 404.443 297.631 403.628 298.382C399.383 302.289 385.711 313.221 360.966 318.329C358.624 318.812 356.316 317.488 355.562 315.219Z" fill="#61E19D"/>
<path d="M336.02 239.731L370.829 211.744L370.829 198.377L333.653 198.377L336.02 239.731Z" fill="#004F68"/>
<path d="M382.669 301.112C386.87 299.694 391.395 296.61 393.246 295.147C394.221 293.198 395.168 290.19 391.158 293.755C387.881 296.667 384.475 298.321 382.275 298.93C381.625 299.11 381.183 299.79 381.384 300.434C381.554 300.98 382.127 301.295 382.669 301.112Z" fill="#004F68"/>
</g>
<circle cx="332.121" cy="152.15" r="68.7829" fill="#61E19D"/>
<path d="M308.592 147.117C322.935 155.326 347.334 153.237 354.734 147.641" stroke="#004968" stroke-width="3.31295" stroke-linecap="round"/>
<path d="M291.624 135.945C293.355 120.855 318.444 119.79 321.137 136.376" stroke="#004968" stroke-width="3.31295" stroke-linecap="round"/>
<path d="M342.243 136.913C343.964 122.242 368.221 121.126 370.772 137.238" stroke="#004968" stroke-width="3.31295" stroke-linecap="round"/>
</g>
<g filter="url(#filter1_d_399_10295)">
<ellipse cx="194.079" cy="318.751" rx="41.7644" ry="4.97554" fill="#004F68"/>
<mask id="mask2_399_10295" style="mask-type:alpha" maskUnits="userSpaceOnUse" x="159" y="207" width="35" height="112">
<path d="M187.29 318.902H162.278C160.404 318.902 159.001 317.181 159.379 315.345C159.581 314.366 160.263 313.555 161.194 313.188L169.654 309.855V219.693C169.654 213.197 174.919 207.932 181.414 207.932C187.909 207.932 193.174 213.197 193.174 219.693V313.017C193.174 316.267 190.54 318.902 187.29 318.902Z" fill="#159593"/>
</mask>
<g mask="url(#mask2_399_10295)">
<path d="M187.29 318.902H162.278C160.404 318.902 159.001 317.181 159.379 315.345C159.581 314.366 160.263 313.555 161.194 313.188L169.654 309.855V219.693C169.654 213.197 174.919 207.932 181.414 207.932C187.909 207.932 193.174 213.197 193.174 219.693V313.017C193.174 316.267 190.54 318.902 187.29 318.902Z" fill="#159593"/>
<path fill-rule="evenodd" clip-rule="evenodd" d="M193.931 226.158L168.902 242.309V223.402C168.902 216.524 174.478 210.948 181.357 210.948C188.043 210.948 193.537 216.227 193.802 222.909L193.931 226.158ZM164.048 308.059C167.176 307.59 173.869 307.403 179.105 308.525C179.756 308.665 180.171 309.306 180.032 309.957C179.892 310.609 179.251 311.024 178.599 310.884C173.703 309.835 167.309 310.01 164.406 310.445C163.747 310.544 163.133 310.09 163.034 309.431C162.935 308.772 163.389 308.158 164.048 308.059Z" fill="#004F68"/>
</g>
<mask id="mask3_399_10295" style="mask-type:alpha" maskUnits="userSpaceOnUse" x="192" y="207" width="35" height="112">
<path d="M198.607 318.902H223.618C225.493 318.902 226.895 317.181 226.517 315.345C226.316 314.366 225.633 313.555 224.703 313.188L216.243 309.855V219.693C216.243 213.197 210.978 207.932 204.483 207.932C197.987 207.932 192.722 213.197 192.722 219.693V313.017C192.722 316.267 195.357 318.902 198.607 318.902Z" fill="#159593"/>
</mask>
<g mask="url(#mask3_399_10295)">
<path d="M198.607 318.902H223.618C225.493 318.902 226.895 317.181 226.517 315.345C226.316 314.366 225.633 313.555 224.703 313.188L216.243 309.855V219.693C216.243 213.197 210.978 207.932 204.483 207.932C197.987 207.932 192.722 213.197 192.722 219.693V313.017C192.722 316.267 195.357 318.902 198.607 318.902Z" fill="#159593"/>
<path fill-rule="evenodd" clip-rule="evenodd" d="M216.998 222.709L195.437 237.032V319.355H191.969V220.548C191.969 213.664 197.55 208.083 204.434 208.083C211.118 208.083 216.612 213.356 216.887 220.034L216.998 222.709ZM221.851 308.06C218.723 307.591 212.03 307.404 206.794 308.525C206.143 308.665 205.728 309.306 205.867 309.958C206.007 310.609 206.648 311.024 207.299 310.884C212.196 309.835 218.59 310.01 221.493 310.445C222.152 310.544 222.766 310.09 222.865 309.432C222.963 308.773 222.509 308.159 221.851 308.06Z" fill="#004F68"/>
</g>
<circle cx="190.762" cy="162.549" r="62.2697" fill="#159593"/>
<path d="M186.691 157.574C197.396 175.968 230.868 176.27 237.653 157.574" stroke="#004F68" stroke-width="2.95957" stroke-linecap="round"/>
<ellipse cx="201.768" cy="152.598" rx="2.11084" ry="2.56316" fill="#004F68"/>
<ellipse cx="227.4" cy="152.598" rx="2.11084" ry="2.56316" fill="#004F68"/>
</g>
<defs>
<filter id="filter0_d_399_10295" x="228.38" y="74.1627" width="210.431" height="259.846" filterUnits="userSpaceOnUse" color-interpolation-filters="sRGB">
<feFlood flood-opacity="0" result="BackgroundImageFix"/>
<feColorMatrix in="SourceAlpha" type="matrix" values="0 0 0 0 0 0 0 0 0 0 0 0 0 0 0 0 0 0 127 0" result="hardAlpha"/>
<feOffset/>
<feGaussianBlur stdDeviation="4.60238"/>
<feColorMatrix type="matrix" values="0 0 0 0 0.568627 0 0 0 0 0.619608 0 0 0 0 0.670588 0 0 0 0.35 0"/>
<feBlend mode="normal" in2="BackgroundImageFix" result="effect1_dropShadow_399_10295"/>
<feBlend mode="normal" in="SourceGraphic" in2="effect1_dropShadow_399_10295" result="shape"/>
</filter>
<filter id="filter1_d_399_10295" x="83.7945" y="85.9719" width="213.482" height="259.216" filterUnits="userSpaceOnUse" color-interpolation-filters="sRGB">
<feFlood flood-opacity="0" result="BackgroundImageFix"/>
<feColorMatrix in="SourceAlpha" type="matrix" values="0 0 0 0 0 0 0 0 0 0 0 0 0 0 0 0 0 0 127 0" result="hardAlpha"/>
<feOffset dy="3.57684"/>
<feGaussianBlur stdDeviation="8.94209"/>
<feComposite in2="hardAlpha" operator="out"/>
<feColorMatrix type="matrix" values="0 0 0 0 0 0 0 0 0 0 0 0 0 0 0 0 0 0 0.15 0"/>
<feBlend mode="normal" in2="BackgroundImageFix" result="effect1_dropShadow_399_10295"/>
<feBlend mode="normal" in="SourceGraphic" in2="effect1_dropShadow_399_10295" result="shape"/>
</filter>
</defs>
</g>

</svg>
