<svg xmlns="http://www.w3.org/2000/svg" xmlns:xlink="http://www.w3.org/1999/xlink" viewBox="0 0 395.96 371.03"><defs><style>.cls-1{fill:#ced2dc;}.cls-1,.cls-2,.cls-3{fill-rule:evenodd;}.cls-2{fill:#e6e8ee;}.cls-3,.cls-8{fill:#fff;}.cls-4{fill:#088c90;}.cls-5{fill:#e6e8ed;}.cls-6{fill:url(#radial-gradient);}.cls-7{fill:#081c4a;}.cls-9{fill:url(#linear-gradient);}</style><radialGradient id="radial-gradient" cx="188.28" cy="181.46" r="103.56" gradientUnits="userSpaceOnUse"><stop offset="0" stop-color="#2bd6c4"/><stop offset="1" stop-color="#15a8a3"/></radialGradient><linearGradient id="linear-gradient" x1="-2199.1" y1="222.73" x2="-2136.84" y2="222.73" gradientTransform="matrix(1, 0, 0, -1, 2354.49, 445.46)" gradientUnits="userSpaceOnUse"><stop offset="0" stop-color="#20335c"/><stop offset="1" stop-color="#081c4a"/></linearGradient></defs><title>home-practice</title><g id="Layer_2" data-name="Layer 2"><g id="Background"><path class="cls-1" d="M279,49.5A49.5,49.5,0,1,0,328.5,0,49.5,49.5,0,0,0,279,49.5"/><path class="cls-2" d="M0,99A99,99,0,1,0,99,0,99,99,0,0,0,0,99"/><path class="cls-3" d="M200,101C308.21,101,396,188.75,396,297H200Z"/><path class="cls-1" d="M99,198A98.73,98.73,0,0,0,.27,296.73H99Z"/></g><g id="Character"><path class="cls-4" d="M136.21,174c-8.75,4.38-17.65,8.44-26.15,13.3-7.24,4.13-15.48,9-19.88,16.32-2.28,3.82,3.68,7.29,6,3.48,4.2-7,13-11.42,19.88-15.23,7.74-4.26,15.77-8,23.67-11.91,4-2,.48-7.94-3.48-6Z"/><path class="cls-4" d="M233.56,179.91c7.9,4,15.93,7.65,23.68,11.91,6.92,3.81,15.67,8.21,19.87,15.23,2.28,3.81,8.25.34,6-3.48-4.4-7.36-12.63-12.18-19.87-16.32-8.5-4.86-17.41-8.92-26.15-13.3-4-2-7.46,4-3.49,6Z"/><ellipse class="cls-5" cx="197.98" cy="334.45" rx="176.03" ry="36.58"/><path class="cls-4" d="M141.91,332.07a71.14,71.14,0,0,1,11.82-5.3c3.72-1.26,8.23-1.42,11.77-2.89a4.71,4.71,0,0,0,2.82-2.69c1.35-3.32.89-8.78,1.34-12.4a344.34,344.34,0,0,1,10.6-51.86c1.21-4.28-5.44-6.1-6.66-1.83a357.94,357.94,0,0,0-12,65.17l1.71-3c-1,.7-3.45.64-4.7.93a72.81,72.81,0,0,0-7.49,2.18,81.58,81.58,0,0,0-12.64,5.72c-3.89,2.15-.41,8.11,3.48,5.95Z"/><path class="cls-4" d="M207.21,256.76q.73,26.42,2.06,52.81c.24,4.64-1.51,14.21,3.94,16.31,3.18,1.22,7.16,1,10.48,2.12a40.67,40.67,0,0,1,11,6c3.56,2.65,7-3.34,3.48-6a44.54,44.54,0,0,0-17.46-8c-.33-.07-3.94-.31-4.23-.66.2.24,0-4,0-3.93q-.31-5.87-.6-11.73-1.12-23.46-1.77-46.94c-.12-4.43-7-4.45-6.9,0Z"/><circle class="cls-6" cx="188.28" cy="181.46" r="78.7"/><path class="cls-7" d="M174.13,162.46c5.72,0,5.73-8.89,0-8.89s-5.73,8.89,0,8.89Z"/><path class="cls-7" d="M202.43,162.46c5.72,0,5.72-8.89,0-8.89s-5.73,8.89,0,8.89Z"/><path class="cls-4" d="M189,163.69l-2.18,3h3l-2.18-3a1.8,1.8,0,0,0-2.4-.63,1.76,1.76,0,0,0-.62,2.39l2.18,3a1.78,1.78,0,0,0,3,0l2.18-3a1.75,1.75,0,0,0-.63-2.39,1.78,1.78,0,0,0-2.39.63Z"/><path class="cls-4" d="M213.81,144a58.52,58.52,0,0,0-18.36-1.82c-2.86.1-2.87,4.54,0,4.44a54.91,54.91,0,0,1,17.18,1.66c2.75.79,3.93-3.5,1.18-4.28Z"/><path class="cls-4" d="M163.93,148.23a54.88,54.88,0,0,1,17.18-1.66c2.86.1,2.86-4.34,0-4.44A58.52,58.52,0,0,0,162.75,144c-2.75.78-1.58,5.07,1.18,4.28Z"/><path class="cls-8" d="M161.94,158.42c7.14-.69,13.64-4.09,20.84-1.67l-1.12-1.47c-.4,5.55-2.67,11.71-9.7,10-4-1-7.13-5.11-8.55-8.84-.69-1.82-3.65-1-2.95.81,2.08,5.47,6.71,11.08,13,11.31,8.08.28,10.8-6.49,11.28-13.32a1.54,1.54,0,0,0-1.12-1.48c-7.6-2.55-14.11.84-21.65,1.56C160,155.54,160,158.6,161.94,158.42Z"/><path class="cls-8" d="M214.62,155.36c-7.73-.77-13.86-4.64-21.66-1.56a1.59,1.59,0,0,0-1.12,1.48c.49,6.83,3.21,13.6,11.28,13.32,6.27-.23,10.9-5.84,13-11.31.7-1.84-2.25-2.63-3-.81-1.41,3.73-4.5,7.88-8.54,8.84-7,1.68-9.31-4.49-9.7-10l-1.12,1.47c7.36-2.91,13.54.94,20.84,1.67C216.57,158.61,216.56,155.55,214.62,155.36Z"/><path class="cls-8" d="M183.18,161.13a83.64,83.64,0,0,1,9.23-.45,1.53,1.53,0,0,0,0-3.05,79,79,0,0,0-9.23.45c-1.94.2-2,3.26,0,3Z"/><path class="cls-7" d="M174.68,180.91a24.63,24.63,0,0,0,27.2-1.59c2.25-1.71,0-5.57-2.24-3.84a20.28,20.28,0,0,1-22.72,1.6c-2.49-1.42-4.73,2.41-2.24,3.83Z"/><rect class="cls-9" x="155.39" y="201.97" width="62.27" height="41.52" rx="7.35" transform="translate(373.05 445.46) rotate(-180)"/><path class="cls-4" d="M277.11,207.05c10.07,19.18-17.41,20.2-29.58,19.91-11.63-.29-22.81-2.33-34.29-4-4.34-.63-6.21,6-1.83,6.65,16.3,2.35,32.41,5.46,49,4,7.7-.67,16.1-2.62,21.73-8.33,6.25-6.32,4.73-14.53.94-21.74-2.06-3.93-8-.45-6,3.48Z"/><path class="cls-4" d="M90.18,203.57c-3.68,7-5.3,14.93.51,21.27,5.56,6.08,14.29,8.11,22.17,8.8,16.58,1.45,32.69-1.66,49-4,4.38-.63,2.52-7.28-1.83-6.65-11.48,1.65-22.66,3.69-34.29,4-12.17.29-39.65-.73-29.58-19.91,2.06-3.93-3.89-7.42-6-3.48Z"/></g></g></svg>